<svg version="1.1" xmlns="http://www.w3.org/2000/svg" x="0px" y="0px" width="512px" height="512px" viewBox="0 0 512 512">
<style type="text/css">
svg {pointer-events:none;}
svg path{fill:#222;animation: scaleAni 8s infinite;}
svg path:first-of-type {animation-delay:1.5s;}
svg path:nth-of-type(2) {animation-delay:2s;}
svg path:nth-of-type(3) {animation-delay:2.2s;}
@keyframes scaleAni {
	0% {
	}
	10% {
		transform: scaleX(.1);
		fill:#ccc;
	}
	30% {
		transform: scaleX(1);
	}
	60% {
		fill:#222;
	}
}
</style>
<path d="M491.3,78.4H20.7C9.3,78.4,0,87.7,0,99.1s9.3,20.7,20.7,20.7h470.6c11.4,0,20.7-9.3,20.7-20.7 S502.7,78.4,491.3,78.4z"/>
<path d="M491.3,235.3H20.7C9.3,235.3,0,244.6,0,256s9.3,20.7,20.7,20.7h470.6c11.4,0,20.7-9.3,20.7-20.7 C512,244.6,502.7,235.3,491.3,235.3z"/>
<path d="M491.3,392.2H20.7C9.3,392.2,0,401.5,0,412.9s9.3,20.7,20.7,20.7h470.6c11.4,0,20.7-9.3,20.7-20.7 S502.7,392.2,491.3,392.2z"/>
</svg>
