<?xml version="1.0" encoding="utf-8"?>
<svg version="1.1" id="Layer" xmlns="http://www.w3.org/2000/svg" xmlns:xlink="http://www.w3.org/1999/xlink" x="0px" y="0px" width="512px" height="512px" viewBox="0 0 512 512" style="enable-background:new 0 0 512 512;" xml:space="preserve">
<style type="text/css">.st0{fill:#FF5752;}.st1{fill:#DB3A3C;}.st2{fill:#EFEFEF;}.st3{fill:#C5D8DF;}</style>
<path class="st0" d="M243.6,506.5c-7.1-7.9-173-194.1-173-321C70.6,83.2,153.8,0,256,0s185.4,83.2,185.4,185.4c0,126.9-165.9,313.2-173,321C261.8,513.9,250.2,513.8,243.6,506.5z"/>
<path class="st1" d="M441.4,185.4C441.4,83.2,358.2,0,256,0v512c4.6,0,9.1-1.8,12.4-5.5C275.5,498.6,441.4,312.3,441.4,185.4z"/>
<path class="st2" d="M256,323.3c-76,0-137.9-61.9-137.9-137.9S180,47.5,256,47.5s137.9,61.9,137.9,137.9S332,323.3,256,323.3z"/>
<path class="st3" d="M256,47.5v275.8c76,0,137.9-61.9,137.9-137.9S332,47.5,256,47.5z"/>
</svg>
